<?xml version="1.0" standalone="no"?>
<!DOCTYPE svg PUBLIC "-//W3C//DTD SVG 20010904//EN"
 "http://www.w3.org/TR/2001/REC-SVG-20010904/DTD/svg10.dtd">
<svg version="1.0" xmlns="http://www.w3.org/2000/svg"
 width="1024.000000pt" height="1024.000000pt" viewBox="0 0 1024.000000 1024.000000"
 preserveAspectRatio="xMidYMid meet">
<metadata>
Created by potrace 1.14, written by Peter Selinger 2001-2017
</metadata>
<g transform="translate(0.000000,1024.000000) scale(0.100000,-0.100000)"
fill="#000000" stroke="none">
<path d="M4785 9154 c-481 -39 -996 -166 -1391 -344 -76 -34 -365 -179 -404
-203 -704 -422 -1241 -987 -1623 -1707 -30 -58 -74 -148 -97 -200 -23 -52 -50
-113 -60 -135 -25 -56 -94 -252 -129 -365 -128 -420 -191 -924 -170 -1355 7
-139 42 -472 54 -515 3 -8 11 -53 19 -100 40 -228 152 -582 248 -787 16 -35
26 -68 22 -74 -4 -8 -3 -9 4 -5 8 4 16 -4 23 -21 5 -15 22 -50 36 -78 14 -27
33 -63 41 -80 8 -16 39 -71 69 -122 31 -53 51 -97 47 -104 -5 -8 -3 -9 6 -4
10 6 12 4 7 -9 -4 -9 -3 -15 2 -11 5 3 23 -16 40 -42 17 -27 51 -77 76 -112
36 -53 42 -67 32 -80 -10 -12 -9 -14 5 -8 19 7 43 -17 33 -33 -4 -6 -2 -9 3
-8 8 2 63 -56 122 -129 14 -17 12 -36 -2 -26 -22 13 -37 12 -31 -4 4 -11 8
-11 13 -3 5 8 10 9 14 2 4 -6 13 -9 21 -6 8 3 19 -4 26 -18 7 -13 21 -29 31
-36 10 -7 15 -18 12 -24 -4 -7 -2 -8 5 -4 6 4 14 0 18 -11 3 -10 13 -22 20
-26 8 -5 11 -16 8 -28 -6 -18 2 -23 31 -20 5 0 25 -15 44 -34 19 -19 30 -35
26 -35 -5 0 12 -16 38 -36 30 -23 45 -41 42 -51 -3 -7 -2 -11 4 -8 12 8 51
-26 43 -38 -3 -6 -2 -7 4 -4 12 8 76 -57 66 -67 -4 -4 1 -4 11 0 14 5 17 4 12
-4 -4 -7 -1 -12 10 -12 13 0 14 -3 5 -14 -10 -12 -9 -14 7 -9 10 2 27 -3 36
-12 18 -18 17 -25 -6 -29 -7 -1 -24 -8 -37 -15 -19 -11 -25 -11 -32 0 -6 11
-11 11 -21 1 -9 -9 -9 -12 5 -12 9 0 17 -5 17 -11 0 -7 8 -6 23 3 43 28 81 37
95 22 7 -8 9 -15 5 -16 -4 0 -12 -2 -18 -3 -39 -7 -72 -21 -89 -37 -20 -18
-20 -18 1 -18 11 0 26 -7 34 -16 10 -13 10 -17 -2 -25 -11 -7 -8 -9 11 -10 14
-1 32 -1 40 0 25 2 42 -15 42 -43 0 -18 6 -26 18 -26 15 0 17 8 15 48 -2 26
-4 49 -4 51 -1 3 -6 0 -13 -7 -7 -7 -24 -12 -39 -12 -22 0 -26 5 -26 25 0 14
3 25 8 25 5 0 9 -6 9 -14 0 -10 9 -14 28 -13 20 2 27 8 28 25 1 17 -2 20 -12
11 -9 -8 -15 -5 -23 9 -15 28 8 35 38 11 13 -11 18 -19 12 -19 -7 0 -9 -5 -6
-11 4 -6 13 -8 21 -5 8 3 17 -1 21 -10 8 -21 -4 -29 -22 -14 -10 8 -15 9 -15
1 0 -6 5 -11 12 -11 9 0 9 -3 1 -11 -12 -12 -6 -49 8 -49 9 0 13 14 10 36 -1
6 6 17 14 24 9 8 15 8 15 2 0 -6 7 -18 16 -26 16 -17 11 -56 -7 -56 -6 0 -8 8
-5 18 3 9 1 24 -4 32 -9 13 -10 13 -11 0 -3 -29 3 -45 18 -57 13 -10 9 -11
-21 -6 -22 3 -42 1 -51 -7 -21 -18 -8 -31 23 -23 15 3 33 6 42 5 8 0 25 4 38
10 21 11 21 13 5 30 -9 10 -11 18 -6 18 6 0 16 -7 23 -15 10 -12 16 -13 28 -3
13 11 14 11 7 -1 -6 -11 -4 -13 8 -8 11 4 14 2 11 -7 -7 -17 52 -60 68 -50 10
5 10 4 1 -6 -10 -10 -18 -10 -42 0 -17 7 -31 18 -31 25 0 7 -7 16 -15 19 -14
5 -13 1 1 -24 10 -16 25 -31 33 -33 9 -3 -2 -5 -25 -6 -45 -1 -104 16 -104 30
0 5 -5 9 -11 9 -6 0 -9 -10 -7 -22 2 -18 8 -22 27 -20 16 3 22 0 18 -10 -2 -7
-10 -12 -16 -10 -6 1 -11 -2 -11 -8 0 -5 18 -10 40 -10 31 0 40 4 40 18 1 10
7 3 15 -16 19 -42 42 -42 50 2 8 40 35 52 74 31 26 -14 26 -14 -16 -15 -24 0
-43 -5 -43 -11 0 -6 18 -10 43 -9 58 2 67 1 67 -8 0 -5 -26 -10 -57 -11 -76
-2 -82 -11 -8 -11 l58 0 -23 -25 c-13 -14 -31 -25 -41 -25 -9 0 -22 -7 -29
-15 -7 -8 -19 -15 -27 -15 -8 0 -11 -4 -8 -10 3 -5 1 -10 -4 -10 -19 0 -12
-19 12 -31 19 -10 20 -10 10 2 -16 20 7 49 41 49 14 0 26 4 26 9 0 16 76 7 94
-11 17 -17 16 -18 -3 -18 -12 0 -21 4 -21 9 0 7 -50 7 -70 1 -3 -1 -16 -1 -29
0 l-25 2 24 -25 c24 -25 50 -26 50 -1 0 16 12 18 25 5 6 -5 23 -11 39 -13 22
-2 30 -9 31 -25 1 -13 -2 -23 -7 -23 -4 0 -7 -15 -7 -32 1 -22 3 -26 6 -13 8
32 20 39 32 16 7 -12 18 -21 26 -21 8 0 15 -4 15 -10 0 -5 -10 -10 -22 -10
-19 0 -20 -2 -8 -10 8 -5 23 -7 33 -4 10 3 23 1 30 -4 7 -5 33 -13 60 -16 26
-4 45 -12 42 -17 -4 -5 1 -12 9 -15 27 -11 17 -21 -16 -17 -18 2 -27 0 -20 -3
6 -3 12 -10 12 -15 0 -6 -5 -7 -12 -3 -7 4 -8 3 -4 -5 4 -6 21 -18 37 -27 30
-15 30 -15 18 8 -11 21 -11 22 4 10 14 -12 20 -11 40 5 13 10 22 23 20 28 -2
6 6 16 17 23 11 7 20 8 20 3 0 -5 -6 -11 -12 -14 -10 -3 -10 -9 -1 -25 8 -13
9 -23 3 -27 -6 -3 -10 -1 -10 4 0 18 -38 -10 -44 -32 -4 -17 -3 -17 20 -2 13
8 24 11 24 5 0 -5 11 -12 25 -16 14 -3 25 -12 25 -20 0 -8 7 -14 15 -14 8 0
15 7 15 15 0 12 7 9 27 -10 30 -27 39 -30 48 -16 3 6 -4 15 -16 21 -11 7 -18
14 -15 17 10 10 46 -29 46 -49 0 -26 25 -49 44 -42 10 4 16 19 17 38 l0 31 16
-38 c10 -24 22 -37 34 -37 10 0 18 -5 17 -11 -2 -7 12 -18 30 -25 28 -12 32
-12 32 1 0 9 9 15 21 15 14 0 19 5 16 14 -4 10 3 12 30 9 19 -2 41 1 49 7 7 7
21 10 31 7 14 -4 13 -5 -4 -6 -14 -1 -23 -7 -23 -17 0 -13 7 -15 38 -9 20 4
39 11 40 16 3 6 8 6 15 0 7 -5 19 -11 27 -14 8 -2 3 -3 -12 -1 -15 2 -30 -1
-34 -7 -3 -6 -23 -9 -45 -8 -21 2 -41 0 -45 -4 -4 -4 -15 0 -24 8 -16 14 -18
14 -24 0 -3 -9 -10 -13 -16 -10 -23 14 -31 -8 -10 -27 16 -15 29 -19 52 -14
24 5 29 3 24 -9 -3 -8 -1 -17 4 -20 6 -4 11 4 11 17 1 17 3 18 6 6 5 -19 33
-25 33 -8 0 6 7 10 15 10 8 0 15 -4 15 -10 0 -5 -7 -10 -15 -10 -8 0 -15 -4
-15 -9 0 -5 -6 -11 -12 -14 -7 -2 -6 -3 2 -2 8 2 24 6 34 11 16 6 18 4 13 -9
-7 -19 18 -23 42 -8 9 6 22 6 33 0 12 -7 18 -6 18 1 0 6 5 8 10 5 6 -4 8 -11
5 -16 -4 -5 8 -12 25 -16 22 -4 28 -8 18 -14 -11 -7 -10 -11 2 -22 19 -19 67
-30 74 -18 9 13 46 1 46 -15 0 -17 1 -17 35 -4 23 9 26 8 22 -4 -5 -11 5 -16
41 -21 26 -4 54 -9 62 -12 28 -11 50 -10 50 3 0 11 21 24 41 24 18 0 8 -18
-13 -24 -23 -6 -22 -7 6 -22 22 -12 34 -13 51 -6 18 8 25 8 29 -4 3 -8 17 -14
33 -13 16 1 51 -6 78 -15 56 -18 103 -20 124 -7 10 6 22 5 35 -5 11 -8 37 -14
58 -14 21 0 38 -4 38 -8 0 -4 28 -9 62 -10 35 -1 71 -5 80 -8 10 -3 18 -1 18
4 0 5 -19 14 -42 19 l-43 11 38 1 c25 1 45 -6 59 -19 26 -24 58 -29 38 -5 -10
13 -9 15 9 15 11 0 21 -6 21 -12 0 -9 24 -14 79 -16 70 -3 80 -1 84 15 3 13 5
14 6 3 1 -11 13 -16 40 -17 34 -2 39 1 34 15 -6 16 -5 15 11 -1 23 -22 38 -22
56 3 8 11 18 20 23 20 5 0 4 -7 -3 -15 -7 -9 -11 -17 -9 -18 11 -8 181 11 191
21 7 7 25 12 40 12 15 0 28 5 28 10 0 6 10 10 23 10 35 0 67 11 61 21 -7 12
17 11 36 -1 13 -9 13 -11 0 -20 -11 -7 -6 -9 20 -8 69 2 82 7 76 31 -3 12 -3
16 0 10 7 -15 34 -17 34 -3 0 6 5 10 11 10 6 0 8 -7 5 -17 -6 -15 -4 -15 14 2
11 10 20 13 20 7 0 -13 110 -4 125 10 6 6 1 9 -15 7 -41 -3 -60 0 -60 12 0 7
11 8 30 4 20 -4 30 -3 30 5 0 6 10 10 23 8 12 -2 21 -9 20 -15 -3 -17 35 -3
42 15 5 13 8 14 14 4 9 -14 61 -6 61 9 0 5 13 6 30 3 33 -7 64 11 56 33 -3 7
-1 13 4 13 6 0 10 -9 10 -20 0 -11 5 -20 10 -20 6 0 10 9 10 21 0 17 4 20 24
15 15 -4 26 -1 29 7 3 9 7 9 20 -2 15 -12 17 -11 17 7 0 11 -6 23 -12 25 -8 3
-6 6 5 6 10 1 20 -6 23 -14 8 -19 24 -20 24 -1 0 17 58 29 94 20 23 -6 26 -3
26 22 1 26 2 27 14 12 11 -15 15 -16 32 -4 16 12 16 16 4 31 -12 15 -10 16 26
13 24 -2 38 1 37 8 -1 7 8 9 22 6 26 -4 33 6 15 24 -13 13 58 16 80 4 19 -11
50 6 50 28 0 15 2 15 10 2 7 -11 12 -12 18 -3 4 6 20 15 35 18 15 4 27 13 27
21 0 8 6 14 14 14 8 0 18 9 21 20 8 25 75 30 75 5 0 -19 24 -19 40 0 10 12 7
15 -12 20 -13 3 -29 15 -36 26 -7 10 -11 19 -10 19 2 0 26 -6 55 -14 29 -8 51
-11 50 -8 -3 9 37 49 55 55 13 4 -19 1 -63 -6 -13 -2 -18 -2 -11 0 7 3 10 9 6
14 -13 21 7 47 36 45 43 -2 49 -16 7 -16 -21 0 -37 -4 -37 -10 0 -5 18 -10 40
-10 24 0 40 5 40 12 0 6 6 3 14 -8 14 -18 15 -18 21 8 4 15 14 33 23 40 9 8
13 8 9 2 -4 -7 -1 -24 7 -38 12 -24 15 -25 29 -11 9 8 20 15 26 15 6 0 11 5
11 11 0 6 -9 8 -20 4 -22 -7 -26 5 -8 23 13 13 42 17 34 4 -3 -5 1 -9 8 -9 8
0 13 11 12 26 -1 24 -4 26 -36 24 -34 -3 -34 -3 9 11 51 17 64 13 56 -17 -5
-19 -5 -20 5 -5 6 10 19 18 28 19 12 0 9 4 -8 12 l-25 11 28 4 c38 5 34 17 -5
17 -33 0 -47 24 -20 33 7 2 10 -2 6 -12 -5 -12 1 -15 28 -13 18 1 39 6 46 11
7 4 19 3 27 -4 12 -10 15 -9 15 6 0 11 -5 26 -10 34 -9 13 -11 13 -20 0 -5 -8
-11 -19 -13 -24 -2 -5 -9 -6 -16 -2 -7 5 -10 14 -7 22 4 11 -1 13 -19 8 -33
-8 -32 4 2 17 17 6 30 6 36 0 5 -5 16 -7 24 -4 8 3 19 0 24 -8 6 -11 9 -8 9 9
0 12 -7 25 -15 28 -8 4 -12 10 -9 15 3 5 10 6 16 3 6 -4 17 1 24 11 18 25 32
10 15 -16 -16 -26 -9 -34 17 -20 14 8 19 17 15 32 -4 15 -2 20 5 15 6 -4 19
-2 29 3 10 5 30 12 46 16 25 5 39 25 17 25 -5 0 -10 -4 -10 -10 0 -13 -37 -13
-45 0 -3 6 -2 10 4 10 6 0 8 7 5 15 -4 10 0 15 16 15 11 0 19 4 16 8 -2 4 9 9
26 10 16 1 37 9 45 18 19 19 30 10 13 -11 -10 -12 -10 -15 1 -15 15 1 49 24
49 34 0 3 -7 6 -15 6 -22 0 -18 28 5 35 12 4 22 19 26 40 7 37 -1 59 -18 49
-7 -4 -8 -2 -4 4 14 23 -14 12 -39 -15 -14 -15 -25 -22 -25 -15 0 6 5 12 11
12 5 0 7 5 4 11 -4 6 -13 8 -21 5 -22 -9 -16 0 14 20 23 15 25 15 13 1 -19
-23 -6 -21 32 5 18 13 34 24 36 25 2 2 1 6 -2 9 -4 4 -15 1 -24 -7 -17 -12
-17 -12 -1 5 17 20 38 14 38 -10 0 -8 7 -14 15 -14 8 0 15 -4 15 -10 0 -14
-13 -13 -28 2 -16 16 -27 2 -11 -15 7 -8 23 -12 34 -10 17 3 17 2 -2 -6 -18
-8 -23 -19 -23 -49 0 -21 -6 -44 -12 -50 -10 -10 -10 -15 2 -22 12 -7 16 -4
18 16 2 17 8 24 18 20 20 -7 18 4 -3 20 -15 10 -16 15 -5 26 10 10 17 10 32 0
25 -15 30 -15 30 2 0 8 -7 16 -15 20 -8 3 -15 10 -15 17 0 6 7 9 15 5 9 -3 15
0 15 9 0 8 -5 14 -12 13 -7 -2 -12 8 -12 22 -1 14 -8 31 -16 38 -8 8 -9 11 -2
7 7 -4 19 -2 27 5 10 9 19 9 36 0 l21 -12 -23 -11 c-12 -7 -24 -18 -27 -24 -5
-18 17 -16 24 2 4 8 14 15 23 15 9 0 22 4 30 9 15 10 11 17 -33 61 -19 19 -19
20 -2 20 10 0 27 -9 37 -21 10 -12 25 -19 36 -16 16 4 16 6 -4 12 -25 8 -39
35 -19 35 8 0 16 -5 18 -12 3 -7 14 -9 29 -5 35 9 39 64 6 70 -12 2 1 5 30 6
28 0 55 6 58 11 3 6 -1 10 -9 10 -9 0 -16 7 -16 16 0 8 -4 13 -9 9 -11 -6 -26
13 -17 22 3 4 14 -1 24 -10 9 -9 26 -14 37 -12 11 2 23 4 28 4 4 1 7 8 7 16 0
7 8 19 18 25 16 11 16 11 -1 6 -10 -3 -22 -6 -27 -6 -5 0 -10 -6 -13 -12 -2
-7 -3 -5 -2 5 4 20 -6 22 -23 5 -8 -8 -12 -9 -12 -1 0 6 6 14 12 16 10 4 9 8
-2 16 -17 12 -43 -5 -33 -23 3 -6 3 -8 -2 -4 -4 4 -15 2 -24 -4 -9 -7 4 9 29
35 24 26 49 47 55 47 6 0 7 -3 0 -8 -5 -4 -12 -16 -13 -27 -2 -11 -1 -17 4
-13 4 4 14 2 22 -5 12 -9 16 -9 19 1 6 16 30 16 37 0 3 -7 3 -3 0 10 -4 15 0
24 11 28 13 6 14 8 3 15 -9 6 -9 9 -1 9 6 0 19 7 28 16 13 13 14 19 4 25 -7 4
-14 18 -16 30 -3 18 -1 21 8 12 6 -6 18 -9 27 -6 10 4 13 2 8 -5 -4 -7 -2 -12
4 -12 7 0 9 7 6 16 -4 9 1 25 9 34 14 16 14 18 0 23 -14 6 -20 -4 -16 -26 1
-5 -4 -5 -10 -1 -7 4 -9 3 -5 -4 3 -6 1 -14 -6 -18 -7 -4 -10 -4 -6 1 4 4 2
15 -5 23 -9 13 -9 14 1 8 6 -4 12 -2 12 4 0 6 15 27 33 47 58 64 58 65 72 53
9 -8 15 -8 20 0 3 5 1 10 -4 10 -16 0 -13 26 4 40 18 15 20 0 3 -19 -11 -12
-9 -13 7 -6 11 4 28 9 37 12 12 4 16 15 15 43 -1 33 -3 36 -13 22 -8 -11 -9
-21 -3 -26 11 -13 12 -26 0 -26 -5 0 -12 7 -15 16 -6 14 17 48 142 214 1 2 8
-2 13 -10 8 -11 9 -10 4 8 -4 13 -2 22 4 22 6 0 11 4 11 9 0 21 76 131 90 131
10 0 11 3 4 8 -8 5 -5 17 11 40 13 18 25 30 27 25 3 -4 3 -2 2 4 -5 19 73 148
79 132 3 -8 5 -5 4 6 -1 11 31 86 71 166 39 81 72 152 72 158 0 6 5 11 11 11
5 0 7 5 4 10 -4 6 -1 18 6 26 7 9 14 23 15 32 2 9 7 25 12 37 48 101 132 385
178 598 146 679 116 1392 -87 2062 -247 811 -840 1637 -1539 2140 -242 175
-534 340 -820 465 -352 154 -765 262 -1165 305 -137 15 -551 27 -650 19z m455
-224 c611 -36 1143 -199 1730 -533 532 -302 1020 -782 1376 -1354 256 -411
432 -876 518 -1368 65 -372 67 -897 5 -1265 -32 -190 -97 -461 -139 -580 -140
-401 -307 -717 -538 -1025 -407 -539 -867 -921 -1464 -1215 -490 -241 -973
-366 -1548 -400 -579 -35 -1245 103 -1815 375 -706 337 -1357 935 -1742 1599
-273 470 -430 965 -478 1507 -119 1358 459 2648 1563 3487 455 346 1007 592
1589 707 316 63 613 84 943 65z m2810 -6654 c0 -2 -8 -10 -17 -17 -16 -13 -17
-12 -4 4 13 16 21 21 21 13z m-10 -66 c0 -5 -7 -10 -15 -10 -8 0 -15 5 -15 10
0 6 7 10 15 10 8 0 15 -4 15 -10z m-124 -95 c-3 -30 -21 -34 -19 -5 1 28 2 30
12 30 5 0 8 -11 7 -25z m-80 -50 c-9 -9 -16 -13 -16 -8 0 12 22 34 28 28 2 -2
-3 -11 -12 -20z m44 -25 c0 -5 -7 -10 -16 -10 -8 0 -12 5 -9 10 3 6 10 10 16
10 5 0 9 -4 9 -10z m-185 -110 c3 -6 -1 -7 -9 -4 -18 7 -21 14 -7 14 6 0 13
-4 16 -10z m-5350 -10 c3 -5 1 -10 -4 -10 -6 0 -11 5 -11 10 0 6 2 10 4 10 3
0 8 -4 11 -10z m-25 -26 c0 -11 -5 -14 -16 -10 -9 3 -18 6 -20 6 -3 0 -2 5 1
10 10 16 35 12 35 -6z m240 -106 c0 -12 -6 -9 -26 13 -19 22 -19 22 4 8 12 -8
22 -17 22 -21z m4986 18 c8 -8 14 -19 14 -25 0 -15 27 -14 33 2 2 6 8 9 12 4
13 -11 -6 -24 -45 -31 -22 -4 -28 -3 -16 2 18 8 18 9 3 15 -10 4 -16 11 -15
16 2 5 -1 9 -7 10 -5 1 -11 -3 -11 -9 -1 -5 -2 -14 -3 -20 -2 -15 -18 -12 -24
4 -4 11 -1 13 11 9 9 -3 14 -3 10 2 -4 4 -3 14 3 22 14 16 17 16 35 -1z
m-4891 -84 c-3 -3 -11 0 -18 7 -9 10 -8 11 6 5 10 -3 15 -9 12 -12z m4779 6
c-3 -4 1 -8 8 -9 10 0 10 -2 0 -6 -6 -2 -10 -9 -6 -14 3 -5 -3 -12 -13 -16
-10 -4 -21 -11 -24 -16 -9 -14 -29 1 -29 21 0 15 2 15 10 2 9 -13 11 -13 19 0
5 8 7 18 5 22 -3 4 0 8 6 8 6 0 9 4 6 8 -3 5 1 9 9 9 8 0 12 -4 9 -9z m116 -8
c0 -5 -4 -10 -10 -10 -5 0 -10 5 -10 10 0 6 5 10 10 10 6 0 10 -4 10 -10z
m-202 -63 c-9 -7 -25 -18 -35 -25 -16 -11 -15 -12 12 -7 24 4 27 3 15 -6 -12
-9 -11 -10 8 -6 12 3 22 1 22 -5 0 -6 -13 -8 -33 -4 -33 6 -33 6 -29 -25 3
-23 1 -30 -7 -25 -7 4 -9 16 -6 27 4 13 2 19 -8 19 -9 0 -17 -5 -19 -12 -3 -7
-7 -6 -11 5 -5 13 -1 17 21 17 20 0 23 3 13 9 -8 5 -21 7 -30 3 -17 -6 -16 -4
13 18 16 12 18 12 12 1 -5 -8 -5 -12 0 -9 54 24 64 33 59 47 -5 13 -4 14 7 3
11 -11 10 -15 -4 -25z m-4798 3 c0 -5 -4 -10 -10 -10 -5 0 -10 5 -10 10 0 6 5
10 10 10 6 0 10 -4 10 -10z m229 -24 c8 -10 9 -16 1 -21 -5 -3 -10 1 -10 9 0
8 -9 18 -20 21 -11 3 -20 11 -20 16 0 12 32 -4 49 -25z m4661 -11 c0 -8 -4
-15 -9 -15 -13 0 -22 16 -14 24 11 11 23 6 23 -9z m-4610 -15 c11 -7 11 -10 2
-10 -7 0 -10 -4 -7 -10 3 -5 -2 -10 -12 -10 -15 0 -16 -2 -3 -10 10 -7 11 -10
2 -10 -7 0 -15 7 -18 15 -4 8 -10 15 -15 15 -4 0 -6 -7 -3 -15 4 -10 0 -15
-14 -15 -29 0 -17 34 16 47 35 14 35 14 52 3z m4407 -57 c-3 -10 -5 -4 -5 12
0 17 2 24 5 18 2 -7 2 -21 0 -30z m-4341 2 c3 -17 -12 -20 -21 -5 -3 6 -1 10
5 10 6 0 8 6 4 13 -4 6 -3 8 1 4 5 -4 10 -14 11 -22z m4313 -22 c-1 -21 -3
-31 -6 -22 -3 12 -14 17 -38 16 -19 0 -31 -5 -29 -9 3 -5 -2 -15 -10 -24 -15
-14 -16 -14 -13 7 2 12 12 28 22 35 13 9 14 14 5 14 -7 0 -11 3 -8 6 4 3 17 0
29 -7 19 -10 25 -9 34 5 14 23 15 21 14 -21z m-4352 21 c-3 -3 -12 -4 -19 -1
-8 3 -5 6 6 6 11 1 17 -2 13 -5z m74 -11 c13 -16 12 -17 -3 -4 -10 7 -18 15
-18 17 0 8 8 3 21 -13z m-61 -7 c0 -9 -50 -12 -62 -5 -8 6 1 9 25 9 20 0 37
-2 37 -4z m90 -18 c0 -5 -14 -8 -31 -8 -16 0 -28 3 -26 8 3 4 17 7 31 7 14 0
26 -3 26 -7z m-95 -19 c-10 -15 -25 -10 -19 6 4 8 10 12 15 9 5 -3 7 -10 4
-15z m50 -19 c3 -5 -1 -10 -9 -10 -8 0 -18 5 -21 10 -3 6 1 10 9 10 8 0 18 -4
21 -10z m4201 -21 c4 -8 1 -8 -14 0 -12 6 -24 16 -28 22 -4 8 -1 8 14 0 12 -6
24 -16 28 -22z m-4086 11 c8 -5 11 -10 5 -10 -5 0 -17 5 -25 10 -8 5 -10 10
-5 10 6 0 17 -5 25 -10z m3980 6 c0 -2 -7 -7 -16 -10 -8 -3 -12 -2 -9 4 6 10
25 14 25 6z m-4015 -15 c17 -7 17 -8 -8 -15 -18 -4 -27 -13 -27 -26 0 -11 -4
-20 -9 -20 -5 0 -13 -9 -16 -20 -3 -11 -11 -20 -16 -20 -16 0 -10 25 11 43 11
9 20 21 20 27 0 16 -48 11 -58 -6 -6 -11 -12 -13 -16 -6 -10 16 34 36 74 34
26 -2 31 0 20 8 -17 11 -4 12 25 1z m4046 -8 c13 -16 12 -17 -3 -4 -10 7 -18
15 -18 17 0 8 8 3 21 -13z m29 7 c0 -5 -2 -10 -4 -10 -3 0 -8 5 -11 10 -3 6
-1 10 4 10 6 0 11 -4 11 -10z m119 -21 c-8 -5 -18 -9 -24 -9 -5 0 -3 5 5 10 8
5 11 10 5 10 -5 0 -3 5 5 10 10 6 16 6 19 -1 2 -6 -3 -15 -10 -20z m-229 11
c-8 -5 -19 -10 -25 -10 -5 0 -3 5 5 10 8 5 20 10 25 10 6 0 3 -5 -5 -10z
m-3913 -6 c-3 -3 -12 -4 -19 -1 -8 3 -5 6 6 6 11 1 17 -2 13 -5z m4058 -4 c3
-6 -1 -7 -9 -4 -18 7 -21 14 -7 14 6 0 13 -4 16 -10z m-4047 -77 c14 -10 15
-12 2 -13 -8 0 -25 3 -38 6 -17 5 -20 9 -11 20 6 7 7 19 3 25 -4 8 -3 9 4 5 7
-4 13 -1 13 6 1 7 4 2 6 -12 3 -13 12 -30 21 -37z m3812 42 l-25 -15 30 5 c28
5 28 4 8 -6 -12 -6 -30 -8 -40 -5 -16 7 -15 9 7 21 33 19 52 18 20 0z m-3706
-6 c-4 -8 0 -9 15 -4 11 3 28 2 37 -3 15 -8 15 -10 -1 -15 -9 -4 -13 -11 -10
-17 3 -5 2 -10 -4 -10 -19 0 -21 19 -4 30 15 10 14 10 -7 5 -68 -18 -101 -7
-46 15 28 12 28 12 20 -1z m3971 -27 c-3 -3 -11 0 -18 7 -9 10 -8 11 6 5 10
-3 15 -9 12 -12z m-185 -2 c18 -12 2 -12 -25 0 -13 6 -15 9 -5 9 8 0 22 -4 30
-9z m-115 -12 c-16 -6 -33 -16 -37 -22 -5 -8 -8 -7 -8 2 0 13 34 31 60 31 8
-1 2 -5 -15 -11z m252 6 c-3 -3 -12 -4 -19 -1 -8 3 -5 6 6 6 11 1 17 -2 13 -5z
m-3963 -28 c-3 -9 -17 -16 -31 -16 -13 0 -21 4 -18 10 3 6 15 10 26 10 10 0
19 5 19 12 0 6 2 9 5 6 3 -3 3 -13 -1 -22z m186 9 c0 -2 -9 -3 -19 -2 -11 0
-18 5 -15 9 4 6 34 0 34 -7z m-6 -24 c3 -5 -3 -11 -14 -14 -22 -6 -37 8 -18
16 20 8 26 8 32 -2z m3610 -6 c-4 -8 -8 -15 -10 -15 -2 0 -4 7 -4 15 0 8 4 15
10 15 5 0 7 -7 4 -15z m-160 -4 c3 -5 -5 -8 -18 -7 -13 0 -22 4 -19 9 6 10 31
9 37 -2z m-3424 -11 c-8 -5 -22 -9 -30 -9 -10 0 -8 3 5 9 27 12 43 12 25 0z
m83 -17 l28 -6 -21 -19 c-17 -16 -26 -18 -43 -10 -22 11 -22 11 3 12 l25 2
-24 7 c-14 4 -27 13 -29 20 -3 10 0 12 14 7 11 -4 32 -10 47 -13z m-336 -9
c-3 -3 -12 -4 -19 -1 -8 3 -5 6 6 6 11 1 17 -2 13 -5z m141 -1 c-10 -2 -28 -2
-40 0 -13 2 -5 4 17 4 22 1 32 -1 23 -4z m3650 0 c-10 -2 -26 -2 -35 0 -10 3
-2 5 17 5 19 0 27 -2 18 -5z m-73 -20 c10 4 14 3 9 -4 -4 -6 0 -16 7 -21 11
-8 10 -8 -4 -4 -10 3 -25 6 -33 6 -8 0 -14 10 -14 23 0 16 3 19 9 8 5 -8 16
-11 26 -8z m-3515 -3 c0 -5 -7 -10 -15 -10 -8 0 -15 5 -15 10 0 6 7 10 15 10
8 0 15 -4 15 -10z m178 -2 c-2 -6 -10 -14 -16 -16 -7 -2 -10 2 -6 12 7 18 28
22 22 4z m3122 -2 c0 -3 -4 -8 -10 -11 -5 -3 -10 -1 -10 4 0 6 5 11 10 11 6 0
10 -2 10 -4z m-3376 -12 c25 -9 10 -22 -20 -16 -19 3 -22 7 -12 13 16 11 13
10 32 3z m3546 -14 c0 -5 -2 -10 -4 -10 -3 0 -8 5 -11 10 -3 6 -1 10 4 10 6 0
11 -4 11 -10z m-3363 -6 c-3 -3 -12 -4 -19 -1 -8 3 -5 6 6 6 11 1 17 -2 13 -5z
m251 -3 c11 -7 11 -9 -2 -14 -9 -4 -23 -4 -32 0 -13 5 -13 7 -2 14 7 5 15 9
18 9 3 0 11 -4 18 -9z m2837 -1 c-3 -5 -14 -10 -23 -9 -14 0 -13 2 3 9 27 11
27 11 20 0z m-2908 -32 c-3 -8 -6 -5 -6 6 -1 11 2 17 5 13 3 -3 4 -12 1 -19z
m3233 12 c0 -5 -4 -10 -10 -10 -5 0 -10 5 -10 10 0 6 5 10 10 10 6 0 10 -4 10
-10z m-3328 -15 c0 -5 -5 -11 -11 -13 -6 -2 -11 4 -11 13 0 9 5 15 11 13 6 -2
11 -8 11 -13z m3148 -5 c0 -5 -4 -10 -10 -10 -5 0 -10 5 -10 10 0 6 5 10 10
10 6 0 10 -4 10 -10z m-3290 -25 c0 -14 -4 -25 -10 -25 -5 0 -10 11 -10 25 0
14 5 25 10 25 6 0 10 -11 10 -25z m97 19 c-3 -3 -12 -4 -19 -1 -8 3 -5 6 6 6
11 1 17 -2 13 -5z m3253 2 c0 -3 -4 -8 -10 -11 -5 -3 -10 -1 -10 4 0 6 5 11
10 11 6 0 10 -2 10 -4z m-413 -12 c-3 -3 -12 -4 -19 -1 -8 3 -5 6 6 6 11 1 17
-2 13 -5z m463 -2 c0 -5 -7 -9 -15 -9 -8 0 -12 4 -9 9 3 4 9 8 15 8 5 0 9 -4
9 -8z m-3220 -12 c0 -5 -4 -10 -10 -10 -5 0 -10 5 -10 10 0 6 5 10 10 10 6 0
10 -4 10 -10z m37 -12 c-3 -8 -6 -5 -6 6 -1 11 2 17 5 13 3 -3 4 -12 1 -19z
m231 -2 c-8 -6 -17 -18 -21 -26 -3 -8 -5 -1 -4 16 1 26 4 30 20 26 17 -4 18
-7 5 -16z m2542 14 c18 -12 2 -12 -25 0 -13 6 -15 9 -5 9 8 0 22 -4 30 -9z
m317 -10 c-1 -12 -8 -20 -19 -20 -29 0 -17 26 19 39 1 1 1 -8 0 -19z m-3227 6
c0 -3 -4 -8 -10 -11 -5 -3 -10 -1 -10 4 0 6 5 11 10 11 6 0 10 -2 10 -4z
m2830 -6 c0 -5 -5 -10 -11 -10 -5 0 -7 5 -4 10 3 6 8 10 11 10 2 0 4 -4 4 -10z
m340 6 c0 -3 -4 -8 -10 -11 -5 -3 -10 -1 -10 4 0 6 5 11 10 11 6 0 10 -2 10
-4z m-2727 -13 c-7 -2 -19 -2 -25 0 -7 3 -2 5 12 5 14 0 19 -2 13 -5z m2677
-13 c0 -5 -4 -10 -10 -10 -5 0 -10 5 -10 10 0 6 5 10 10 10 6 0 10 -4 10 -10z
m-160 -10 c0 -5 -4 -10 -10 -10 -5 0 -10 5 -10 10 0 6 5 10 10 10 6 0 10 -4
10 -10z m-2560 -15 c0 -8 -7 -15 -15 -15 -16 0 -20 12 -8 23 11 12 23 8 23 -8z
m2590 -15 c0 -5 -5 -10 -11 -10 -5 0 -7 5 -4 10 3 6 8 10 11 10 2 0 4 -4 4
-10z m95 1 c3 -5 1 -12 -5 -16 -5 -3 -10 1 -10 9 0 18 6 21 15 7z m-2722 -18
c2 -5 0 -21 -4 -38 -5 -24 -7 -25 -8 -7 -1 15 -7 22 -20 22 -11 0 -23 5 -26
10 -4 7 3 8 21 4 19 -5 25 -4 20 5 -4 6 -3 11 3 11 5 0 12 -3 14 -7z m-93 -13
c0 -5 -14 -7 -32 -3 -46 8 -48 13 -5 13 21 0 37 -4 37 -10z m325 1 c3 -5 0
-13 -6 -17 -7 -4 -9 -3 -5 4 3 5 0 13 -6 15 -9 4 -10 6 -1 6 6 1 14 -3 18 -8z
m-178 -26 c-13 -27 -27 -33 -27 -12 0 14 19 37 31 37 4 0 2 -11 -4 -25z m253
0 c0 -9 -6 -12 -15 -9 -8 4 -15 10 -15 15 0 5 7 9 15 9 8 0 15 -7 15 -15z
m2313 8 c-7 -2 -19 -2 -25 0 -7 3 -2 5 12 5 14 0 19 -2 13 -5z m-2663 -23 c0
-5 -11 -10 -25 -10 -14 0 -25 5 -25 10 0 6 11 10 25 10 14 0 25 -4 25 -10z
m2023 3 c-7 -2 -19 -2 -25 0 -7 3 -2 5 12 5 14 0 19 -2 13 -5z m577 -3 c8 -5
11 -10 5 -10 -5 0 -17 5 -25 10 -8 5 -10 10 -5 10 6 0 17 -5 25 -10z m-2310
-4 c0 -2 -7 -7 -16 -10 -8 -3 -12 -2 -9 4 6 10 25 14 25 6z m-85 -16 c3 -5 1
-10 -4 -10 -6 0 -11 5 -11 10 0 6 2 10 4 10 3 0 8 -4 11 -10z m325 0 c0 -5 -4
-10 -10 -10 -5 0 -10 5 -10 10 0 6 5 10 10 10 6 0 10 -4 10 -10z m1355 -8 c-3
-3 -11 0 -18 7 -9 10 -8 11 6 5 10 -3 15 -9 12 -12z m142 12 c-3 -3 -12 -4
-19 -1 -8 3 -5 6 6 6 11 1 17 -2 13 -5z m-244 -11 c-7 -2 -19 -2 -25 0 -7 3
-2 5 12 5 14 0 19 -2 13 -5z m784 1 c-3 -3 -12 -4 -19 -1 -8 3 -5 6 6 6 11 1
17 -2 13 -5z m-2430 -20 c0 -17 -11 -18 -25 -1 -8 10 -7 13 7 14 10 1 18 -5
18 -13z m163 12 c0 -2 -9 -6 -20 -9 -11 -3 -18 -1 -14 4 5 9 34 13 34 5z
m1430 0 c0 -2 -7 -7 -16 -10 -8 -3 -12 -2 -9 4 6 10 25 14 25 6z m460 -6 c0
-5 -12 -10 -27 -9 l-28 1 25 8 c14 4 26 8 28 9 1 1 2 -3 2 -9z m185 -8 c-3 -3
-11 0 -18 7 -9 10 -8 11 6 5 10 -3 15 -9 12 -12z m42 12 c-3 -3 -12 -4 -19 -1
-8 3 -5 6 6 6 11 1 17 -2 13 -5z m-297 -39 c0 -5 -5 -3 -10 5 -5 8 -10 20 -10
25 0 6 5 3 10 -5 5 -8 10 -19 10 -25z m347 9 c-9 -9 -28 6 -21 18 4 6 10 6 17
-1 6 -6 8 -13 4 -17z m-2254 6 c8 0 7 -4 -1 -12 -9 -9 -16 -8 -30 6 -16 18
-16 19 1 12 10 -3 24 -6 30 -6z m127 0 c0 -5 -4 -10 -10 -10 -5 0 -10 5 -10
10 0 6 5 10 10 10 6 0 10 -4 10 -10z m-45 -30 c-11 -5 -29 -9 -40 -9 l-20 0
20 9 c11 5 29 9 40 9 l20 0 -20 -9z m1975 0 c0 -5 -4 -10 -10 -10 -5 0 -10 5
-10 10 0 6 5 10 10 10 6 0 10 -4 10 -10z m40 6 c0 -11 -19 -15 -25 -6 -3 5 1
10 9 10 9 0 16 -2 16 -4z m-1830 -16 c0 -5 -2 -10 -4 -10 -3 0 -8 5 -11 10 -3
6 -1 10 4 10 6 0 11 -4 11 -10z m380 0 c0 -5 -5 -10 -11 -10 -5 0 -7 5 -4 10
3 6 8 10 11 10 2 0 4 -4 4 -10z m857 -22 c-3 -8 -6 -5 -6 6 -1 11 2 17 5 13 3
-3 4 -12 1 -19z m-1277 2 c0 -5 -5 -10 -11 -10 -5 0 -7 5 -4 10 3 6 8 10 11
10 2 0 4 -4 4 -10z m1583 3 c-7 -2 -21 -2 -30 0 -10 3 -4 5 12 5 17 0 24 -2
18 -5z m-1386 -9 c-3 -3 -12 -4 -19 -1 -8 3 -5 6 6 6 11 1 17 -2 13 -5z m303
2 c0 -3 -4 -8 -10 -11 -5 -3 -10 -1 -10 4 0 6 5 11 10 11 6 0 10 -2 10 -4z
m1157 -2 c-3 -3 -12 -4 -19 -1 -8 3 -5 6 6 6 11 1 17 -2 13 -5z m28 -4 c3 -5
1 -10 -4 -10 -6 0 -11 5 -11 10 0 6 2 10 4 10 3 0 8 -4 11 -10z m72 -10 c3
-10 2 -11 -4 -4 -4 6 -15 14 -23 17 -11 5 -9 6 4 4 11 -1 21 -9 23 -17z
m-1227 -11 c0 -5 -4 -9 -10 -9 -5 0 -10 7 -10 16 0 8 5 12 10 9 6 -3 10 -10
10 -16z m-180 -9 c0 -5 -4 -10 -10 -10 -5 0 -10 5 -10 10 0 6 5 10 10 10 6 0
10 -4 10 -10z m875 -10 c3 -5 1 -10 -4 -10 -6 0 -11 5 -11 10 0 6 2 10 4 10 3
0 8 -4 11 -10z m-1155 -10 c0 -5 -4 -10 -10 -10 -5 0 -10 5 -10 10 0 6 5 10
10 10 6 0 10 -4 10 -10z m370 0 c0 -5 -4 -10 -10 -10 -5 0 -10 5 -10 10 0 6 5
10 10 10 6 0 10 -4 10 -10z m59 -32 c1 -5 -3 -8 -9 -8 -5 0 -10 12 -9 28 0 24
1 25 9 7 5 -11 9 -23 9 -27z m37 -6 c-4 -3 -11 0 -16 8 -15 24 -11 33 6 15 9
-9 13 -19 10 -23z m744 29 c0 -6 -4 -13 -10 -16 -5 -3 -10 1 -10 9 0 9 5 16
10 16 6 0 10 -4 10 -9z m-1045 -11 c-3 -5 -10 -10 -16 -10 -5 0 -9 5 -9 10 0
6 7 10 16 10 8 0 12 -4 9 -10z m395 -10 c0 -5 -12 -10 -27 -9 l-28 1 25 8 c14
4 26 8 28 9 1 1 2 -3 2 -9z m533 -14 c8 -8 25 -13 38 -10 13 2 17 1 9 -2 -8
-4 -18 -11 -21 -17 -8 -12 -52 10 -44 23 3 4 -1 11 -7 13 -9 4 -9 6 -1 6 6 1
18 -5 26 -13z m-38 -26 c-3 -5 -12 -7 -20 -3 -21 7 -19 13 6 13 11 0 18 -4 14
-10z"/>
<path d="M5220 8703 c-8 -3 -85 -47 -170 -98 -144 -85 -262 -152 -641 -364
-172 -96 -194 -116 -185 -164 4 -19 16 -43 27 -53 20 -18 18 -19 -147 -74
l-168 -56 -65 69 c-112 118 -246 201 -390 239 -89 23 -264 28 -353 9 -66 -14
-173 -54 -173 -65 0 -4 29 -17 65 -30 79 -27 140 -62 240 -135 82 -60 280
-247 280 -265 0 -6 -31 -30 -69 -53 l-69 -41 -78 77 c-156 152 -334 276 -443
307 -92 27 -161 -9 -177 -92 -16 -87 70 -232 251 -421 l115 -122 -56 -53 c-31
-29 -60 -53 -65 -53 -24 0 -226 218 -289 311 -58 88 -110 193 -110 224 0 23
-16 7 -32 -33 -39 -96 -52 -170 -52 -297 0 -184 43 -317 150 -467 l45 -63 -29
-38 c-115 -147 -270 -411 -368 -624 l-58 -128 -219 0 -219 0 26 31 c14 17 26
36 26 43 0 19 -44 56 -67 56 -19 0 -148 -97 -220 -166 -45 -44 -44 -79 4 -129
20 -20 139 -123 265 -227 125 -105 228 -193 228 -197 1 -25 -34 -238 -40 -244
-4 -5 -125 51 -269 122 -283 141 -314 150 -364 110 -57 -44 -57 -127 -2 -179
20 -19 32 -22 79 -18 52 4 63 1 178 -58 68 -34 123 -66 123 -70 0 -5 -85 -66
-189 -135 -104 -69 -198 -138 -208 -152 -23 -31 -26 -94 -7 -126 8 -12 41 -43
73 -68 50 -40 72 -49 144 -65 46 -10 91 -23 99 -30 33 -27 45 -69 39 -137 -8
-79 4 -108 56 -136 35 -18 40 -19 80 -5 34 12 47 24 62 54 19 38 19 42 3 87
-9 26 -17 62 -17 80 0 68 -20 112 -74 165 -45 43 -64 54 -141 78 -50 15 -98
30 -107 34 -22 9 370 272 405 272 l24 0 6 -217 c9 -361 56 -624 166 -945 23
-65 41 -120 41 -123 0 -3 -59 -5 -131 -5 l-131 0 -76 -47 c-114 -71 -114 -71
-110 -402 3 -235 5 -270 21 -294 22 -34 211 -162 263 -177 26 -8 97 -11 205
-8 l165 3 95 62 c52 34 106 72 120 83 l27 20 28 -37 c16 -20 54 -64 85 -98
l56 -61 6 -368 c6 -350 8 -370 28 -402 11 -19 30 -36 42 -39 12 -3 135 -6 272
-7 l250 -3 83 -63 c119 -91 159 -112 214 -112 39 0 54 6 82 31 37 32 46 62 49
169 2 54 3 55 32 57 17 1 24 0 18 -3 -23 -10 -14 -26 12 -20 15 4 35 0 54 -12
29 -18 30 -34 1 -45 -8 -3 0 -4 18 -3 31 3 58 16 32 16 -7 0 -10 3 -7 7 4 3 2
12 -4 20 -9 9 -8 13 0 13 6 0 11 -5 11 -11 0 -5 5 -7 10 -4 6 4 9 1 8 -6 -2
-7 6 -14 17 -16 17 -3 18 -2 5 7 -12 9 -10 10 10 5 14 -3 37 -11 53 -17 25
-10 26 -12 10 -24 -17 -13 -17 -14 5 -20 24 -7 30 -29 10 -37 -8 -4 -9 -6 -2
-6 23 -2 36 26 24 51 -10 21 -10 21 3 6 8 -10 23 -18 33 -19 11 0 13 -3 7 -6
-7 -2 -13 -9 -13 -14 0 -14 28 -11 33 4 3 9 9 9 24 0 11 -6 45 -10 77 -9 31 1
51 -1 45 -5 -17 -10 35 -20 73 -13 25 4 29 3 18 -5 -12 -9 -11 -11 8 -11 13 0
21 4 18 8 -3 5 9 6 27 3 31 -4 31 -5 7 -12 l-25 -7 28 -1 c15 -1 27 -6 27 -12
0 -6 8 -8 18 -5 9 3 31 2 47 -3 24 -7 25 -9 8 -10 -33 -1 -53 -12 -53 -28 0
-8 -4 -11 -10 -8 -5 3 -10 2 -10 -3 0 -17 12 -21 36 -10 15 7 20 14 14 18 -6
4 14 12 45 18 48 10 59 9 72 -3 8 -8 19 -15 24 -15 6 0 3 7 -5 16 -20 19 -12
34 17 33 21 0 21 -1 2 -8 -18 -7 -17 -8 6 -13 14 -2 55 -5 90 -5 56 -1 59 0
24 7 -33 6 -26 7 43 9 72 1 82 -1 82 -16 0 -15 -2 -16 -10 -3 -6 9 -10 10 -10
3 0 -6 -3 -20 -6 -30 -5 -15 -4 -15 5 -3 15 21 14 -2 -3 -42 -15 -34 -69 -78
-114 -92 -34 -11 -27 -22 36 -56 54 -29 71 -47 107 -117 l13 -25 22 49 c22 51
53 81 125 120 22 12 34 22 27 23 -7 0 -10 4 -7 10 3 5 0 7 -9 4 -16 -6 -56 12
-56 26 0 5 8 11 18 13 16 4 16 5 -1 6 -12 1 -16 6 -11 14 4 7 3 9 -2 4 -5 -5
-10 -13 -10 -18 -1 -5 -2 -12 -3 -15 -2 -10 -47 41 -54 60 -4 9 -3 16 2 16 5
0 11 -10 14 -22 4 -12 9 -20 12 -16 3 3 1 17 -5 32 -15 40 3 52 93 59 62 4 85
2 110 -11 18 -9 34 -20 37 -23 9 -10 40 -19 40 -11 0 5 -16 14 -35 22 -37 15
-46 30 -17 30 11 0 13 3 5 8 -6 4 30 7 80 5 84 -1 89 0 62 12 l-30 13 41 -3
c47 -4 144 -7 159 -6 6 1 3 6 -5 11 -11 7 -7 10 18 10 20 0 31 4 27 10 -4 6
-16 8 -28 4 -12 -3 -19 -3 -14 2 4 4 33 9 64 11 31 2 63 9 71 15 8 7 50 12
105 12 84 0 88 1 59 13 -42 17 -41 26 4 19 40 -7 64 2 43 15 -11 7 -10 9 4 9
9 0 17 -5 17 -10 0 -7 6 -7 19 0 25 13 34 13 25 -1 -4 -7 -1 -10 6 -7 8 2 16
10 18 17 3 10 -4 12 -28 9 -30 -5 -31 -4 -15 9 11 7 24 13 29 13 19 -1 48 -28
41 -39 -3 -6 -2 -11 3 -11 16 0 22 13 11 27 -9 10 -6 13 17 14 16 1 34 1 41 0
6 -1 14 3 18 9 3 5 15 10 26 10 10 0 19 5 19 11 0 6 -9 9 -20 6 -15 -4 -18 -2
-12 10 13 23 122 66 169 67 22 1 39 4 36 9 -2 4 0 7 6 7 16 0 24 -21 12 -33
-14 -14 -14 -37 -1 -37 6 0 10 9 10 19 0 11 6 22 13 25 8 3 7 8 -6 16 -9 6
-14 16 -11 22 5 8 1 9 -9 5 -42 -17 -48 -16 -12 3 22 11 48 20 58 20 11 0 15
4 11 12 -5 8 -2 9 9 5 10 -4 16 -2 14 6 -1 7 9 11 28 9 21 -2 26 0 16 6 -11 8
-10 12 8 21 12 7 27 9 33 5 7 -5 8 -3 3 6 -6 9 -2 10 15 5 18 -6 22 -4 17 8
-7 19 36 40 52 24 6 -6 14 -7 18 -3 4 4 2 10 -4 14 -9 5 -5 12 10 21 21 13 21
13 7 -4 -14 -17 -13 -17 10 -10 14 4 28 13 32 19 4 6 8 -6 8 -26 0 -20 -4 -40
-10 -43 -5 -3 -10 -14 -10 -23 0 -15 2 -15 11 -2 11 17 4 -43 -13 -100 -25
-84 -107 -190 -187 -242 -57 -36 -76 -35 -91 2 -7 18 -20 30 -30 30 -10 0 -21
6 -23 13 -4 9 -7 9 -15 -1 -7 -10 -11 -10 -22 3 -19 23 -33 18 -26 -11 5 -20
0 -33 -24 -60 -57 -65 -34 -160 47 -190 59 -23 119 -13 222 36 64 31 100 57
155 113 111 111 173 239 196 406 13 93 9 251 -5 244 -5 -3 6 9 25 25 23 20 37
27 42 19 9 -15 41 12 34 30 -3 8 -1 11 4 8 6 -3 10 -13 10 -21 0 -8 4 -14 9
-14 14 0 42 -85 48 -144 4 -43 2 -61 -12 -82 -22 -35 -23 -96 -1 -129 24 -36
59 -48 107 -35 57 16 76 52 84 164 8 105 -5 177 -54 295 -23 53 -28 77 -21 87
8 9 7 14 -1 20 -7 4 -9 3 -5 -4 3 -6 2 -13 -3 -16 -16 -10 -22 26 -7 43 8 9
36 39 62 66 86 91 162 183 230 275 87 118 252 393 274 457 l11 31 75 -5 c65
-5 74 -4 74 11 0 10 5 14 11 10 7 -4 9 0 5 13 -4 13 1 29 13 44 l20 24 -63 20
-64 21 50 144 c47 139 118 404 118 442 0 17 15 18 234 18 140 0 245 4 264 11
66 23 62 -31 63 926 0 836 -1 868 -19 892 -37 50 -44 51 -412 51 l-345 0 -50
107 c-125 270 -320 546 -579 821 l-64 68 21 71 c19 67 20 78 8 152 l-13 80 36
37 c57 59 80 117 84 211 4 71 1 89 -21 136 -67 147 -225 218 -382 172 -48 -13
-70 -28 -120 -78 -68 -68 -96 -129 -99 -217 l-1 -49 -50 -7 c-27 -3 -67 -13
-88 -21 -37 -15 -39 -15 -150 35 -92 42 -283 119 -359 145 -10 4 -18 14 -18
24 0 20 2 18 -334 418 -271 323 -295 344 -366 318z m10 -253 c6 -11 15 -18 21
-15 5 4 8 2 7 -3 -2 -6 23 -41 54 -79 165 -198 246 -298 244 -301 -2 -1 -25 2
-53 7 -305 58 -747 58 -967 0 -27 -7 -42 -7 -49 0 -7 7 -8 11 -1 11 6 0 85 41
175 91 90 50 207 115 259 144 52 29 138 78 190 108 52 31 98 56 102 57 4 0 12
-9 18 -20z m1713 -504 c18 -7 45 -28 60 -45 51 -61 27 -160 -47 -195 -136 -64
-255 90 -159 205 42 49 87 60 146 35z m-1598 -91 c607 -85 1157 -357 1614
-800 178 -172 306 -333 433 -545 194 -324 327 -700 393 -1116 22 -138 31 -527
16 -679 -48 -465 -173 -849 -399 -1222 -172 -284 -435 -572 -703 -770 -154
-114 -416 -261 -604 -338 -213 -88 -448 -150 -740 -197 -129 -20 -584 -17
-720 6 -360 59 -626 145 -925 297 -745 378 -1289 1106 -1449 1940 -37 195 -46
307 -45 564 0 205 4 276 23 395 50 329 141 621 284 907 173 347 362 599 637
849 459 419 1047 676 1659 724 135 11 397 3 526 -15z m2848 -1842 l97 -6 0
-299 c0 -164 -4 -298 -9 -298 -11 0 -272 158 -287 173 -6 7 -21 55 -34 107
-12 52 -37 144 -56 203 -19 60 -34 110 -34 112 0 12 195 17 323 8z m-6043 -20
c0 -23 -79 -244 -86 -244 -5 1 -76 57 -157 126 l-148 125 195 0 c108 0 196 -3
196 -7z m6015 -664 l125 -81 0 -211 0 -210 -82 -80 c-73 -70 -177 -151 -185
-144 -1 2 3 75 9 162 10 158 5 481 -11 598 -5 45 -4 57 6 53 7 -3 69 -42 138
-87z m-5970 -1669 l80 0 46 -90 46 -90 -219 0 -218 0 0 80 0 79 38 6 c20 3 53
9 72 14 19 5 44 7 55 5 11 -2 56 -4 100 -4z m303 -396 c25 -39 19 -54 -21 -54
-26 0 -75 -27 -126 -69 l-44 -36 -113 0 -113 0 -34 33 c-19 19 -52 39 -73 47
-35 12 -39 17 -42 50 -2 20 -1 42 1 49 3 8 83 12 273 14 l269 3 23 -37z m555
-618 c-4 -5 1 -7 9 -4 10 4 27 -8 48 -33 18 -22 39 -38 49 -37 9 2 15 -3 13
-10 -1 -8 2 -11 8 -7 13 8 42 -14 34 -26 -3 -5 0 -8 7 -7 22 5 20 -19 -3 -29
-20 -10 -18 -11 17 -8 31 2 51 -4 87 -27 27 -17 45 -35 41 -41 -3 -6 -1 -7 5
-3 7 4 35 -5 62 -20 l50 -27 -22 -24 c-12 -13 -18 -23 -13 -23 4 0 13 7 20 16
13 19 60 10 49 -8 -5 -8 -1 -9 11 -5 18 8 105 -40 105 -57 0 -5 -6 -3 -14 3
-10 8 -16 9 -21 1 -3 -5 -1 -10 5 -10 6 0 8 -5 5 -10 -4 -6 -1 -9 6 -8 16 4
24 -68 8 -78 -13 -8 -30 16 -22 30 3 5 1 6 -6 2 -6 -4 -8 -12 -5 -18 4 -5 -5
-2 -20 7 -14 10 -26 21 -26 26 0 5 -3 8 -7 7 -5 -1 -27 10 -51 26 l-42 29
-215 -2 -214 -2 -3 158 c-4 215 -2 233 27 231 13 -1 21 -7 18 -12z m88 -53
c13 -16 12 -17 -3 -4 -17 13 -22 21 -14 21 2 0 10 -8 17 -17z m119 -93 c0 -5
-5 -10 -11 -10 -5 0 -7 5 -4 10 3 6 8 10 11 10 2 0 4 -4 4 -10z m2890 -350
c13 -8 13 -10 -2 -10 -9 0 -20 5 -23 10 -8 13 5 13 25 0z m-40 -9 c0 -12 -39
-21 -45 -11 -3 5 3 11 12 13 29 8 33 7 33 -2z m-230 -81 c12 -8 11 -10 -7 -10
-12 0 -25 5 -28 10 -8 13 15 13 35 0z m-1626 -21 c-5 -8 1 -10 17 -6 13 3 33
2 44 -3 15 -6 9 -7 -20 -7 -22 0 -49 6 -60 14 -19 13 -19 13 3 13 15 0 21 -4
16 -11z m1301 -49 c3 -5 -1 -10 -10 -10 -9 0 -13 5 -10 10 3 6 8 10 10 10 2 0
7 -4 10 -10z m-38 -6 c-3 -3 -12 -4 -19 -1 -8 3 -5 6 6 6 11 1 17 -2 13 -5z
m-907 -14 c0 -5 -7 -7 -15 -4 -8 4 -15 8 -15 10 0 2 7 4 15 4 8 0 15 -4 15
-10z m793 -7 c-7 -2 -19 -2 -25 0 -7 3 -2 5 12 5 14 0 19 -2 13 -5z m-706 -9
c-3 -3 -12 -4 -19 -1 -8 3 -5 6 6 6 11 1 17 -2 13 -5z m481 -11 c-10 -2 -28
-2 -40 0 -13 2 -5 4 17 4 22 1 32 -1 23 -4z"/>
<path d="M4808 7659 c-248 -26 -532 -96 -736 -181 -749 -311 -1307 -934 -1536
-1713 -88 -301 -120 -550 -113 -870 9 -406 82 -712 257 -1070 197 -406 504
-754 887 -1008 329 -219 671 -351 1094 -424 161 -28 539 -25 713 5 300 52 530
124 771 241 298 145 475 271 711 506 218 217 347 392 472 641 334 668 369
1481 96 2187 -53 137 -175 379 -244 486 -230 353 -607 698 -984 900 -427 227
-968 345 -1388 300z m60 -734 c1 -241 -1 -442 -5 -445 -12 -11 -245 27 -383
61 -105 27 -318 94 -328 104 -8 7 126 259 183 346 78 116 214 250 305 298 66
35 197 82 215 77 6 -2 11 -160 13 -441z m471 373 c70 -34 101 -57 190 -147
117 -116 176 -198 262 -366 83 -161 84 -149 -8 -178 -206 -67 -416 -115 -550
-124 l-83 -6 0 446 0 446 53 -15 c28 -8 90 -33 136 -56z m-1161 -85 c-63 -69
-144 -191 -204 -309 -37 -71 -68 -131 -70 -133 -2 -2 -54 25 -115 60 l-112 63
44 39 c51 44 180 144 224 172 32 20 247 134 254 135 3 0 -7 -12 -21 -27z
m1891 -120 c89 -58 153 -107 232 -179 l47 -43 -37 -24 c-53 -35 -191 -110
-195 -106 -2 2 -31 59 -65 127 -60 119 -177 308 -206 332 -8 7 -15 17 -15 22
0 12 129 -57 239 -129z m642 -320 c12 -21 35 -54 51 -75 16 -21 26 -43 22 -52
-9 -23 -125 -114 -239 -189 -100 -65 -251 -145 -258 -137 -2 3 -19 49 -39 102
l-35 96 111 60 c125 66 263 155 316 201 19 16 38 30 42 31 3 0 17 -17 29 -37z
m-3356 18 c3 -5 33 -28 66 -50 l62 -41 76 5 c42 4 90 2 106 -4 25 -8 16 -9
-52 -10 -100 -1 -170 -15 -245 -48 -52 -23 -58 -24 -73 -9 -9 8 -25 22 -36 30
-20 14 -19 15 26 75 46 60 58 70 70 52z m784 -386 c59 -30 231 -85 356 -115
89 -22 328 -60 372 -60 2 0 3 -47 3 -105 l0 -105 -43 0 c-62 0 -236 26 -374
55 -65 14 -122 25 -128 25 -5 0 -18 -39 -27 -88 -10 -48 -20 -97 -24 -109 -5
-19 0 -23 47 -37 115 -35 437 -85 542 -86 4 0 7 -166 7 -370 l0 -370 -560 0
-560 0 0 92 0 92 99 150 c340 519 399 748 260 1006 -24 44 -33 68 -22 59 10
-9 33 -24 52 -34z m2858 -87 c210 -354 339 -769 359 -1153 l7 -125 -426 0
-427 0 0 28 c0 65 -22 327 -36 437 -18 142 -56 341 -90 479 -14 54 -24 99 -22
101 2 1 75 41 164 89 89 48 215 123 280 166 65 43 122 79 125 79 3 1 33 -45
66 -101z m-993 0 c32 -82 35 -94 21 -104 -26 -19 -292 -102 -414 -130 -133
-30 -357 -64 -418 -64 l-43 0 0 105 0 104 33 5 c17 2 86 11 152 20 140 18 358
71 500 120 55 19 107 35 117 35 12 1 26 -25 52 -91z m-2297 20 c82 -38 153
-149 153 -238 0 -52 -31 -131 -67 -171 -46 -51 -101 -79 -169 -86 -152 -16
-272 89 -282 245 -13 202 182 336 365 250z m-663 -53 c-34 -100 -34 -243 0
-346 62 -189 196 -424 390 -683 65 -88 66 -89 66 -152 l0 -64 -419 0 -419 0 4
68 c23 364 116 728 261 1017 49 98 133 238 139 232 1 -1 -8 -33 -22 -72z
m3104 -440 c52 -222 87 -480 94 -695 l3 -105 -548 -3 -547 -2 2 372 3 373 110
7 c218 15 509 77 730 156 61 21 113 36 116 33 4 -3 20 -64 37 -136z m-2644
-1187 c16 -276 53 -526 117 -778 43 -170 44 -180 28 -180 -28 0 -236 -97 -354
-164 -71 -41 -133 -72 -137 -70 -25 15 -180 270 -243 399 -127 257 -228 602
-242 828 l-6 87 415 0 415 0 7 -122z m1366 -267 c0 -215 -4 -392 -8 -395 -5
-3 -57 -10 -117 -16 -234 -24 -665 -116 -817 -175 -14 -5 -20 6 -37 62 -68
231 -117 540 -134 841 l-4 72 558 0 559 0 0 -389z m1370 301 c0 -163 -45 -478
-102 -717 -47 -197 -22 -180 -190 -129 -180 56 -437 108 -641 131 l-157 17 0
393 0 393 545 0 545 0 0 -88z m1115 16 c-38 -388 -183 -797 -399 -1125 -90
-137 -85 -134 -154 -94 -66 37 -360 181 -412 201 -51 19 -52 21 -35 76 62 203
127 606 150 927 l7 87 425 0 426 0 -8 -72z m-2487 -1060 l-3 -103 -83 -7
c-161 -13 -435 -75 -619 -138 -96 -33 -81 -43 -138 91 l-35 80 34 14 c124 52
477 129 721 158 17 2 52 5 78 6 l48 1 -3 -102z m467 87 c206 -27 530 -103 657
-153 l27 -11 -35 -88 c-20 -48 -39 -91 -43 -96 -4 -4 -47 7 -97 23 -189 65
-431 115 -601 127 l-93 6 0 104 0 103 34 0 c19 0 87 -7 151 -15z m-1554 -350
c22 -55 43 -105 45 -112 4 -7 -25 -27 -73 -51 -43 -22 -112 -61 -153 -86 -41
-25 -78 -46 -83 -46 -11 0 -143 108 -180 148 l-28 29 48 31 c63 40 366 193
376 189 5 -1 26 -47 48 -102z m2622 44 c149 -74 297 -159 297 -169 0 -9 -104
-107 -155 -146 l-35 -26 -72 45 c-40 25 -115 66 -165 91 -51 25 -93 48 -93 51
0 2 15 39 34 82 19 43 39 91 45 106 6 15 13 27 16 27 4 0 61 -27 128 -61z
m-1536 -438 l3 -313 -47 7 c-152 23 -300 102 -429 231 -86 85 -184 214 -184
241 0 15 148 63 300 97 114 25 311 56 340 52 13 -1 15 -45 17 -315z m438 298
c182 -22 505 -105 505 -128 0 -18 -107 -151 -183 -229 -123 -125 -271 -214
-392 -236 -22 -4 -50 -10 -62 -13 l-23 -5 0 316 0 317 33 -5 c17 -3 73 -10
122 -17z m826 -260 l59 -32 -67 -43 c-64 -41 -236 -134 -248 -134 -3 0 22 32
56 72 34 39 77 93 96 120 19 26 37 48 40 48 3 0 32 -14 64 -31z m-2145 -31
c21 -29 57 -76 81 -104 l43 -52 -92 45 c-50 25 -114 60 -141 78 l-49 33 48 26
c27 14 54 25 61 26 6 0 28 -24 49 -52z"/>
<path d="M3025 2639 c-4 -6 -5 -12 -2 -15 2 -3 7 2 10 11 7 17 1 20 -8 4z"/>
<path d="M3070 2622 c0 -12 19 -26 26 -19 2 2 -2 10 -11 17 -9 8 -15 8 -15 2z"/>
<path d="M3255 2450 c-3 -5 -1 -10 4 -10 6 0 11 5 11 10 0 6 -2 10 -4 10 -3 0
-8 -4 -11 -10z"/>
<path d="M3450 2300 c0 -5 5 -10 10 -10 6 0 10 5 10 10 0 6 -4 10 -10 10 -5 0
-10 -4 -10 -10z"/>
<path d="M4330 8470 c-39 -39 -14 -100 42 -100 51 0 78 69 40 103 -25 23 -58
21 -82 -3z"/>
<path d="M3947 8396 c-18 -38 -38 -62 -71 -85 -25 -18 -46 -34 -46 -36 0 -3
22 -14 50 -26 45 -19 90 -63 102 -99 3 -10 12 1 26 30 26 56 37 69 88 106 l42
30 -50 18 c-41 14 -55 26 -80 67 -17 27 -32 49 -34 49 -1 0 -14 -24 -27 -54z"/>
<path d="M5857 8368 c-13 -23 -15 -34 -7 -42 18 -17 65 41 49 60 -16 20 -22
18 -42 -18z"/>
<path d="M6099 8323 c-17 -33 -39 -58 -72 -79 l-48 -31 50 -32 c35 -23 57 -46
72 -78 l22 -46 23 44 c24 49 54 79 98 101 l29 15 -35 12 c-43 14 -59 31 -91
94 l-24 49 -24 -49z"/>
<path d="M6340 8098 c-15 -25 -17 -35 -8 -46 10 -12 15 -11 30 8 19 24 24 70
8 70 -6 0 -19 -14 -30 -32z"/>
<path d="M7310 7484 c-21 -25 -16 -75 9 -96 31 -24 47 -23 76 7 30 29 32 65 7
88 -23 21 -75 22 -92 1z"/>
<path d="M7747 7312 c-26 -28 -21 -67 13 -105 17 -19 30 -37 30 -40 0 -3 -89
-6 -197 -6 l-198 -1 -22 -26 c-30 -33 -29 -59 2 -89 24 -24 27 -25 187 -25 90
0 180 -3 200 -6 l38 -7 -35 -38 c-23 -25 -35 -49 -35 -67 0 -37 31 -66 62 -59
13 4 74 50 136 102 106 91 112 99 112 134 0 35 -8 45 -102 133 -135 124 -158
136 -191 100z"/>
<path d="M2316 7182 c-15 -29 -91 -104 -117 -116 -12 -5 -12 -7 1 -13 27 -12
112 -98 122 -123 9 -25 10 -25 24 -5 44 59 59 76 95 101 21 15 39 29 39 33 -1
3 -18 18 -39 32 -21 15 -51 47 -67 72 -16 26 -32 46 -36 47 -4 0 -14 -13 -22
-28z m67 -79 l45 -47 -26 -17 c-15 -8 -33 -28 -41 -42 -8 -15 -17 -27 -20 -26
-3 0 -23 21 -45 45 l-39 44 39 44 c22 24 40 45 41 45 1 1 22 -20 46 -46z"/>
<path d="M1966 6918 c-8 -13 -25 -45 -38 -72 -23 -50 -30 -55 -100 -70 -37 -8
-58 -32 -58 -66 0 -35 27 -55 88 -65 47 -8 63 -25 83 -92 22 -75 61 -100 107
-67 19 13 22 24 22 83 0 83 -4 81 158 81 99 0 114 2 132 20 28 28 25 64 -6 89
-24 19 -40 21 -155 21 l-129 0 0 64 c0 56 -3 67 -22 80 -32 23 -65 20 -82 -6z"/>
<path d="M7985 6609 c-21 -45 -56 -79 -104 -98 -40 -17 -39 -27 4 -41 41 -14
88 -58 114 -108 l18 -35 7 28 c12 46 44 84 94 109 l46 23 -41 21 c-47 24 -77
58 -95 108 -6 19 -15 34 -18 34 -4 0 -15 -18 -25 -41z"/>
<path d="M8061 4200 c-35 -48 -38 -62 -16 -80 10 -8 15 -30 15 -62 0 -62 13
-88 45 -88 24 0 25 3 25 58 0 36 6 66 15 78 23 31 17 62 -19 101 l-33 37 -32
-44z"/>
<path d="M8324 4144 c-13 -19 -14 -28 -5 -37 14 -14 27 -1 36 36 9 35 -9 36
-31 1z"/>
<path d="M1623 4123 c-24 -16 -30 -38 -14 -47 14 -9 61 33 54 49 -6 18 -12 18
-40 -2z"/>
<path d="M1894 4112 c-13 -9 -34 -46 -34 -62 0 -17 47 -60 65 -60 23 0 65 45
65 70 0 41 -62 75 -96 52z"/>
<path d="M8072 3760 c-37 -23 -41 -30 -50 -93 -6 -38 -21 -60 -113 -163 -59
-66 -188 -212 -287 -325 -100 -113 -192 -211 -206 -218 -13 -7 -32 -31 -42
-52 -14 -33 -15 -45 -5 -78 40 -136 231 -110 231 32 0 15 25 51 73 103 88 96
410 463 456 521 18 23 43 44 56 47 30 8 85 70 86 99 5 91 -44 147 -128 147
-21 0 -53 -9 -71 -20z"/>
<path d="M8251 3413 c-17 -21 -31 -40 -31 -43 0 -4 14 -19 30 -35 l30 -29 41
40 40 40 -32 32 c-18 18 -36 32 -40 32 -4 0 -21 -17 -38 -37z"/>
<path d="M8102 3215 c-18 -19 -32 -39 -32 -43 0 -11 54 -62 66 -62 5 0 22 16
38 36 l29 36 -35 35 -35 34 -31 -36z"/>
<path d="M7932 3025 c-38 -43 -39 -55 -9 -83 31 -30 47 -27 81 14 l29 35 -35
35 -35 35 -31 -36z"/>
<path d="M7771 2820 c-17 -24 -31 -47 -31 -51 0 -10 54 -49 68 -49 5 0 22 16
36 35 l27 35 -34 37 -35 36 -31 -43z"/>
<path d="M7614 2618 c-49 -57 -49 -56 -19 -88 16 -17 34 -30 39 -30 6 0 25 18
43 39 l32 38 -33 32 c-17 17 -34 31 -37 31 -3 0 -14 -10 -25 -22z"/>
<path d="M6946 2602 c-3 -5 1 -9 9 -9 8 0 15 4 15 9 0 4 -4 8 -9 8 -6 0 -12
-4 -15 -8z"/>
<path d="M7410 2379 l-33 -41 31 -31 31 -31 35 39 c19 22 35 43 36 46 0 11
-45 59 -56 59 -6 0 -25 -18 -44 -41z"/>
<path d="M6616 2382 c-3 -6 -1 -14 5 -17 14 -9 20 -2 10 14 -6 8 -11 9 -15 3z"/>
<path d="M6680 2349 c0 -5 5 -7 10 -4 6 3 10 8 10 11 0 2 -4 4 -10 4 -5 0 -10
-5 -10 -11z"/>
<path d="M6566 2323 c-6 -14 -5 -15 5 -6 7 7 10 15 7 18 -3 3 -9 -2 -12 -12z"/>
<path d="M6595 2320 c-3 -5 -2 -10 4 -10 5 0 13 5 16 10 3 6 2 10 -4 10 -5 0
-13 -4 -16 -10z"/>
<path d="M6655 2320 c3 -5 8 -10 11 -10 2 0 4 5 4 10 0 6 -5 10 -11 10 -5 0
-7 -4 -4 -10z"/>
<path d="M6520 2290 c0 -5 5 -10 11 -10 5 0 7 5 4 10 -3 6 -8 10 -11 10 -2 0
-4 -4 -4 -10z"/>
<path d="M6430 2270 c12 -8 12 -10 1 -10 -8 0 -12 -2 -9 -5 3 -3 13 -2 22 1
14 5 15 9 4 15 -7 5 -17 9 -23 9 -5 0 -3 -5 5 -10z"/>
<path d="M6290 2210 c0 -5 5 -10 10 -10 6 0 10 5 10 10 0 6 -4 10 -10 10 -5 0
-10 -4 -10 -10z"/>
<path d="M6322 2200 c0 -14 2 -19 5 -12 2 6 2 18 0 25 -3 6 -5 1 -5 -13z"/>
<path d="M6350 2205 c0 -8 5 -15 10 -15 6 0 10 7 10 15 0 8 -4 15 -10 15 -5 0
-10 -7 -10 -15z"/>
<path d="M6270 2180 c-13 -9 -13 -10 0 -10 8 0 22 5 30 10 13 9 13 10 0 10 -8
0 -22 -5 -30 -10z"/>
<path d="M6310 2159 c11 -8 6 -9 -20 -4 -33 6 -34 5 -16 -10 23 -17 46 -20 46
-5 0 6 12 8 28 5 24 -5 23 -4 -7 10 -38 17 -53 19 -31 4z"/>
<path d="M6231 2135 c-1 -14 6 -21 19 -22 11 -1 20 2 20 8 0 5 -6 9 -14 9 -8
0 -17 6 -19 13 -3 6 -6 3 -6 -8z"/>
<path d="M3840 2121 c0 -5 7 -12 16 -15 24 -9 27 -7 10 9 -17 17 -26 19 -26 6z"/>
<path d="M3910 2120 c0 -6 5 -10 11 -10 18 0 -11 -30 -30 -31 -11 0 -12 -2 -3
-6 7 -3 21 2 30 10 9 8 23 16 31 19 8 2 4 8 -13 16 -15 7 -26 8 -26 2z"/>
<path d="M6160 2110 c0 -5 11 -10 25 -10 14 0 25 5 25 10 0 6 -11 10 -25 10
-14 0 -25 -4 -25 -10z"/>
<path d="M6358 2113 c7 -3 16 -2 19 1 4 3 -2 6 -13 5 -11 0 -14 -3 -6 -6z"/>
<path d="M4080 2080 c0 -5 5 -10 11 -10 5 0 7 5 4 10 -3 6 -8 10 -11 10 -2 0
-4 -4 -4 -10z"/>
<path d="M4048 2073 c7 -3 16 -2 19 1 4 3 -2 6 -13 5 -11 0 -14 -3 -6 -6z"/>
<path d="M5978 2063 c7 -3 16 -2 19 1 4 3 -2 6 -13 5 -11 0 -14 -3 -6 -6z"/>
<path d="M6070 2050 c0 -5 7 -10 16 -10 8 0 12 5 9 10 -3 6 -10 10 -16 10 -5
0 -9 -4 -9 -10z"/>
<path d="M5798 2033 c7 -3 16 -2 19 1 4 3 -2 6 -13 5 -11 0 -14 -3 -6 -6z"/>
<path d="M4220 2000 c-8 -5 -25 -7 -38 -3 -18 4 -21 2 -16 -11 4 -10 12 -15
19 -12 7 2 21 -2 32 -9 18 -13 20 -12 20 16 0 16 -1 29 -1 29 -1 0 -8 -5 -16
-10z"/>
<path d="M4318 1988 c5 -5 16 -8 23 -6 8 3 3 7 -10 11 -17 4 -21 3 -13 -5z"/>
<path d="M5666 1981 c-18 -7 -18 -8 -3 -14 9 -3 17 -2 17 4 0 6 5 7 11 3 6 -4
27 -10 47 -15 29 -6 33 -5 21 6 -18 17 -69 26 -93 16z"/>
<path d="M5768 1983 c6 -2 18 -2 25 0 6 3 1 5 -13 5 -14 0 -19 -2 -12 -5z"/>
<path d="M4048 1960 c-75 -13 -113 -73 -105 -166 12 -155 116 -248 277 -248
124 0 222 61 271 168 23 51 25 143 3 174 -28 40 -68 54 -116 41 -74 -19 -85
-34 -82 -112 2 -65 1 -68 -26 -82 -39 -20 -67 -19 -101 6 -28 20 -29 21 -14
56 9 20 15 63 14 102 -1 48 -3 59 -9 41 -4 -14 -8 -20 -9 -14 -2 20 -64 41
-103 34z"/>
<path d="M4338 1963 c7 -3 16 -2 19 1 4 3 -2 6 -13 5 -11 0 -14 -3 -6 -6z"/>
<path d="M4370 1950 l-35 -7 32 -2 c17 0 35 4 38 9 3 6 5 9 3 9 -2 -1 -19 -5
-38 -9z"/>
<path d="M4525 1942 c16 -4 15 -6 -10 -17 -17 -8 -25 -14 -18 -14 7 -1 15 -17
19 -37 4 -22 10 -31 14 -24 4 7 2 24 -6 38 -13 25 -12 26 23 42 l37 16 -40 0
c-21 1 -30 -1 -19 -4z"/>
<path d="M5538 1943 c7 -3 16 -2 19 1 4 3 -2 6 -13 5 -11 0 -14 -3 -6 -6z"/>
<path d="M5613 1943 c9 -2 25 -2 35 0 9 3 1 5 -18 5 -19 0 -27 -2 -17 -5z"/>
<path d="M4306 1923 c-6 -14 -5 -15 5 -6 7 7 10 15 7 18 -3 3 -9 -2 -12 -12z"/>
<path d="M5360 1931 c0 -16 28 -33 35 -21 3 5 -1 10 -10 10 -9 0 -13 5 -10 10
3 6 1 10 -4 10 -6 0 -11 -4 -11 -9z"/>
<path d="M5468 1933 c6 -2 18 -2 25 0 6 3 1 5 -13 5 -14 0 -19 -2 -12 -5z"/>
<path d="M5808 1933 c6 -2 18 -2 25 0 6 3 1 5 -13 5 -14 0 -19 -2 -12 -5z"/>
<path d="M5538 1923 c7 -3 16 -2 19 1 4 3 -2 6 -13 5 -11 0 -14 -3 -6 -6z"/>
<path d="M5598 1923 c18 -2 45 -2 60 0 15 2 0 4 -33 4 -33 0 -45 -2 -27 -4z"/>
<path d="M4760 1916 c0 -2 7 -7 16 -10 8 -3 12 -2 9 4 -6 10 -25 14 -25 6z"/>
<path d="M5100 1913 c0 -19 17 -24 30 -8 9 10 9 15 1 15 -6 0 -11 -6 -11 -12
0 -9 -4 -8 -10 2 -6 9 -10 10 -10 3z"/>
<path d="M5239 1915 c-1 -3 -2 -8 -3 -12 -1 -5 -5 -13 -9 -19 -4 -7 0 -14 8
-18 9 -3 15 0 15 8 0 8 3 21 6 30 3 9 1 16 -5 16 -6 0 -12 -2 -12 -5z"/>
<path d="M5415 1900 c-3 -5 -1 -10 4 -10 6 0 11 5 11 10 0 6 -2 10 -4 10 -3 0
-8 -4 -11 -10z"/>
<path d="M5081 1893 c0 -4 4 -17 9 -28 8 -19 9 -19 9 2 1 12 -3 25 -9 28 -5 3
-10 3 -9 -2z"/>
<path d="M5141 1874 c0 -11 3 -14 6 -6 3 7 2 16 -1 19 -3 4 -6 -2 -5 -13z"/>
<path d="M5170 1845 c0 -7 30 -13 34 -7 3 4 -4 9 -15 9 -10 1 -19 0 -19 -2z"/>
<path d="M5576 1825 c-31 -29 -34 -67 -6 -95 65 -65 144 33 82 103 -21 24 -44
21 -76 -8z"/>
<path d="M5158 1803 c7 -3 16 -2 19 1 4 3 -2 6 -13 5 -11 0 -14 -3 -6 -6z"/>
<path d="M5907 1739 c-34 -26 -36 -70 -5 -99 25 -23 31 -24 61 -9 29 15 37 28
37 60 0 55 -51 82 -93 48z"/>
<path d="M5280 1558 c0 -7 5 -20 10 -28 9 -13 11 -13 20 0 5 8 8 20 7 25 -5
15 -37 18 -37 3z"/>
<path d="M4661 1517 c-16 -41 -13 -57 9 -57 15 0 20 7 20 28 0 15 -4 34 -10
42 -7 11 -11 9 -19 -13z"/>
<path d="M2800 1599 c0 -5 5 -7 10 -4 6 3 10 8 10 11 0 2 -4 4 -10 4 -5 0 -10
-5 -10 -11z"/>
<path d="M8630 3046 c0 -2 7 -7 16 -10 8 -3 12 -2 9 4 -6 10 -25 14 -25 6z"/>
<path d="M8620 3011 c0 -6 4 -13 10 -16 6 -3 7 1 4 9 -7 18 -14 21 -14 7z"/>
<path d="M8499 2827 c-14 -17 -29 -45 -32 -62 -6 -23 -5 -26 3 -13 6 10 9 19
8 21 -2 2 9 18 25 36 23 27 34 51 25 51 -2 0 -15 -15 -29 -33z"/>
<path d="M8555 2809 c-4 -6 -5 -12 -2 -15 2 -3 7 2 10 11 7 17 1 20 -8 4z"/>
<path d="M1613 2732 c1 -14 5 -18 11 -12 7 7 6 14 -1 21 -9 9 -12 7 -10 -9z"/>
<path d="M8460 2720 c-13 -8 -12 -10 3 -10 9 0 17 5 17 10 0 12 -1 12 -20 0z"/>
<path d="M8385 2670 c3 -5 8 -10 11 -10 2 0 4 5 4 10 0 6 -5 10 -11 10 -5 0
-7 -4 -4 -10z"/>
<path d="M8363 2645 c-3 -9 -3 -18 -1 -21 3 -3 8 4 11 16 6 23 -1 27 -10 5z"/>
<path d="M8405 2650 c-3 -5 1 -10 9 -10 9 0 15 -4 14 -9 -3 -8 2 -11 17 -11 3
0 1 9 -5 20 -12 22 -25 26 -35 10z"/>
<path d="M8402 2610 c0 -14 2 -19 5 -12 2 6 2 18 0 25 -3 6 -5 1 -5 -13z"/>
<path d="M8337 2603 c-4 -3 -7 -11 -7 -17 0 -6 5 -5 12 2 6 6 9 14 7 17 -3 3
-9 2 -12 -2z"/>
<path d="M8370 2586 c0 -9 5 -16 10 -16 6 0 10 4 10 9 0 6 -4 13 -10 16 -5 3
-10 -1 -10 -9z"/>
<path d="M8386 2564 c-11 -7 -16 -17 -12 -21 4 -4 10 -3 14 3 4 6 14 13 22 16
7 2 10 7 4 10 -5 4 -18 0 -28 -8z"/>
<path d="M8438 2563 c7 -3 16 -2 19 1 4 3 -2 6 -13 5 -11 0 -14 -3 -6 -6z"/>
<path d="M8286 2483 c-9 -22 -7 -33 5 -33 6 0 9 7 5 15 -3 9 0 15 8 15 8 0 17
-6 19 -12 3 -7 6 -4 6 7 1 25 -34 31 -43 8z"/>
<path d="M8206 2449 c-15 -15 -17 -22 -8 -31 9 -9 12 -8 12 6 0 9 4 15 8 12 4
-2 9 4 9 15 2 23 3 23 -21 -2z"/>
<path d="M1808 2443 c6 -2 18 -2 25 0 6 3 1 5 -13 5 -14 0 -19 -2 -12 -5z"/>
<path d="M8167 2413 c-11 -10 3 -23 24 -23 10 0 19 -7 19 -15 0 -8 7 -15 16
-15 14 0 14 3 4 15 -10 12 -10 18 1 33 13 15 12 16 -3 4 -12 -10 -22 -11 -36
-3 -11 6 -22 8 -25 4z"/>
<path d="M1815 2400 c-3 -5 -1 -10 4 -10 6 0 11 5 11 10 0 6 -2 10 -4 10 -3 0
-8 -4 -11 -10z"/>
<path d="M8185 2340 c-3 -5 1 -10 10 -10 9 0 13 5 10 10 -3 6 -8 10 -10 10 -2
0 -7 -4 -10 -10z"/>
<path d="M8241 2314 c0 -11 3 -14 6 -6 3 7 2 16 -1 19 -3 4 -6 -2 -5 -13z"/>
<path d="M8176 2302 c-4 -13 -5 -26 -2 -29 10 -11 18 4 14 29 l-4 23 -8 -23z"/>
<path d="M1990 2286 c0 -4 7 -14 15 -22 8 -9 15 -11 15 -6 0 5 -7 15 -15 22
-8 7 -15 9 -15 6z"/>
<path d="M1960 2260 c0 -5 5 -10 11 -10 5 0 7 5 4 10 -3 6 -8 10 -11 10 -2 0
-4 -4 -4 -10z"/>
<path d="M8153 2233 c9 -2 23 -2 30 0 6 3 -1 5 -18 5 -16 0 -22 -2 -12 -5z"/>
<path d="M8092 2175 c-7 -8 -9 -15 -4 -15 5 0 15 7 22 15 16 19 -1 19 -18 0z"/>
<path d="M1895 2150 c3 -5 10 -10 16 -10 5 0 9 5 9 10 0 6 -7 10 -16 10 -8 0
-12 -4 -9 -10z"/>
<path d="M1990 2116 c0 -13 -6 -27 -12 -29 -8 -4 -7 -6 3 -6 11 -1 18 9 21 29
3 17 1 30 -4 30 -4 0 -8 -11 -8 -24z"/>
<path d="M2059 2111 c12 -8 51 -4 51 5 0 2 -15 4 -32 4 -23 0 -29 -3 -19 -9z"/>
<path d="M2115 2090 c-3 -6 1 -7 9 -4 18 7 21 14 7 14 -6 0 -13 -4 -16 -10z"/>
<path d="M2160 2090 c-8 -5 -10 -10 -5 -10 6 0 17 5 25 10 8 5 11 10 5 10 -5
0 -17 -5 -25 -10z"/>
<path d="M8035 2090 c-3 -5 -1 -10 4 -10 6 0 11 5 11 10 0 6 -2 10 -4 10 -3 0
-8 -4 -11 -10z"/>
<path d="M8000 2080 c0 -5 5 -10 11 -10 5 0 7 5 4 10 -3 6 -8 10 -11 10 -2 0
-4 -4 -4 -10z"/>
<path d="M7930 2035 c0 -14 5 -25 11 -25 6 0 9 7 5 15 -3 8 -1 15 5 15 6 0 7
5 4 10 -11 18 -25 10 -25 -15z"/>
<path d="M7970 2049 c0 -5 5 -7 10 -4 6 3 10 8 10 11 0 2 -4 4 -10 4 -5 0 -10
-5 -10 -11z"/>
<path d="M2168 2028 c9 -9 15 -9 24 0 9 9 7 12 -12 12 -19 0 -21 -3 -12 -12z"/>
<path d="M2213 2013 c-19 -7 -15 -23 5 -23 10 0 19 7 19 15 0 16 -4 17 -24 8z"/>
<path d="M2155 1970 c-3 -5 1 -10 9 -10 8 0 18 5 21 10 3 6 -1 10 -9 10 -8 0
-18 -4 -21 -10z"/>
<path d="M7865 1940 c-3 -5 -1 -10 4 -10 6 0 11 5 11 10 0 6 -2 10 -4 10 -3 0
-8 -4 -11 -10z"/>
<path d="M2125 1930 c-3 -5 -1 -10 4 -10 6 0 11 5 11 10 0 6 -2 10 -4 10 -3 0
-8 -4 -11 -10z"/>
<path d="M7745 1931 c-3 -5 -1 -12 5 -16 5 -3 10 1 10 9 0 18 -6 21 -15 7z"/>
<path d="M2156 1921 c-3 -4 6 -6 19 -3 14 2 25 6 25 8 0 8 -39 4 -44 -5z"/>
<path d="M7787 1869 c7 -7 15 -10 18 -7 3 3 -2 9 -12 12 -14 6 -15 5 -6 -5z"/>
<path d="M7840 1869 c0 -5 5 -7 10 -4 6 3 10 8 10 11 0 2 -4 4 -10 4 -5 0 -10
-5 -10 -11z"/>
<path d="M2220 1846 c0 -10 28 -13 41 -5 10 6 7 9 -13 9 -16 0 -28 -2 -28 -4z"/>
<path d="M2250 1812 c0 -5 7 -13 16 -16 10 -4 14 -1 12 6 -5 15 -28 23 -28 10z"/>
<path d="M2290 1811 c0 -5 7 -11 14 -14 10 -4 13 -1 9 9 -6 15 -23 19 -23 5z"/>
<path d="M2280 1760 c-13 -8 -13 -10 2 -10 9 0 20 5 23 10 8 13 -5 13 -25 0z"/>
<path d="M2335 1760 c-4 -6 3 -10 14 -10 25 0 27 6 6 13 -8 4 -17 2 -20 -3z"/>
<path d="M2530 1721 c0 -5 9 -11 19 -14 14 -3 18 -1 14 9 -6 15 -33 19 -33 5z"/>
<path d="M2365 1710 c3 -5 8 -10 11 -10 2 0 4 5 4 10 0 6 -5 10 -11 10 -5 0
-7 -4 -4 -10z"/>
<path d="M7540 1676 c0 -3 14 -11 30 -20 31 -15 39 -9 18 12 -11 11 -48 17
-48 8z"/>
<path d="M2490 1610 c0 -5 5 -10 10 -10 6 0 10 5 10 10 0 6 -4 10 -10 10 -5 0
-10 -4 -10 -10z"/>
<path d="M2510 1585 c-8 -9 -9 -15 -2 -15 6 0 14 5 17 10 10 16 25 12 25 -7 0
-15 2 -16 10 -3 5 8 10 18 10 23 0 13 -47 7 -60 -8z"/>
<path d="M2657 1593 c-4 -3 -15 -7 -25 -8 -9 0 -18 -5 -19 -10 -2 -12 39 -8
47 4 3 5 16 11 30 14 l25 4 -26 2 c-14 0 -29 -2 -32 -6z"/>
<path d="M2770 1455 c0 -8 7 -15 15 -15 8 0 15 7 15 15 0 8 -7 15 -15 15 -8 0
-15 -7 -15 -15z"/>
<path d="M7300 1424 c0 -8 5 -12 10 -9 6 4 8 11 5 16 -9 14 -15 11 -15 -7z"/>
<path d="M2797 1359 c7 -7 15 -10 18 -7 3 3 -2 9 -12 12 -14 6 -15 5 -6 -5z"/>
<path d="M2930 1304 c0 -12 6 -15 23 -10 12 3 25 6 30 6 4 0 7 5 7 10 0 6 -13
10 -30 10 -21 0 -30 -5 -30 -16z"/>
<path d="M3200 1150 c0 -5 10 -15 23 -21 22 -12 22 -12 3 10 -21 23 -26 26
-26 11z"/>
<path d="M6575 1059 c-4 -5 -19 -15 -33 -21 -23 -9 -24 -12 -9 -15 10 -3 26 2
36 11 10 9 23 16 29 16 7 0 12 5 12 10 0 13 -27 13 -35 -1z"/>
<path d="M3418 1043 c7 -3 16 -2 19 1 4 3 -2 6 -13 5 -11 0 -14 -3 -6 -6z"/>
<path d="M6480 1010 c0 -5 5 -10 10 -10 6 0 10 5 10 10 0 6 -4 10 -10 10 -5 0
-10 -4 -10 -10z"/>
<path d="M3712 951 c-11 -7 -10 -10 3 -15 24 -9 65 -7 65 3 0 18 -46 27 -68
12z"/>
<path d="M5520 770 c0 -5 9 -10 20 -10 11 0 20 5 20 10 0 6 -9 10 -20 10 -11
0 -20 -4 -20 -10z"/>
</g>
</svg>
